<svg id="Capa_1" enable-background="new 0 0 512 512" height="512" viewBox="0 0 512 512" width="512" xmlns="http://www.w3.org/2000/svg"><g><g><path d="m333.125 138.574c12.8-25.956 25.54-58.378 31.433-70.45 5.512-11.292 16.671-17.192 25.42-11.998 8.749 5.195 8.442 17.075 4.501 28.506-6.742 18.789-21.292 49.17-34.074 71.964z" fill="#d49c8d"/><path d="m421.487 303.61c7.312-80.426-23.143-146.57-104.142-170.999-78.271-23.606-161.024 12.163-182.57 89.999-22.685 81.949-43.666 127.577-73.68 149.412-32.423 23.587-55.31 29.557-50.183 58.537 12.872 72.758 284.596 155.867 386.147-47.235 8.999-18 21.856-51.428 24.428-79.714z" fill="#ffa585"/><path d="m317.345 132.611c-13.291-4.008-26.71-6.3-39.937-6.969 57.907 21.478 79.679 72.204 74.129 133.263-2.048 22.533-12.291 49.164-19.461 63.504-68.983 137.964-236.529 110.15-290.755 63.026-21.346 13.903-34.412 22.504-30.41 45.124 12.872 72.759 284.596 155.868 386.147-47.235 9-18 21.857-51.428 24.428-79.714 7.312-80.426-23.142-146.57-104.141-170.999z" fill="#ef7c85"/><g><path d="m187.31 2.225c-14.402 1.395-25.097 16.323-21.787 30.409 6.206 26.407 20.581 66.47 52.91 89.632 51.228 36.703 128.138 17.074 128.138 17.074s-6.147-79.137-57.375-115.84c-32.329-23.163-74.886-23.89-101.886-21.275z" fill="#78eac4"/><path d="m218.433 122.266c51.227 36.704 128.137 17.074 128.137 17.074-1.033-10.846-3.379-22.526-6.216-33.166 3.582 16.163 4.402 28.043 4.402 28.043s-52.01-3.182-93.209-32.7c-26-18.628-39.692-47.875-46.255-66.918-3.501-10.157 4.823-26.494 17.341-32.916-11.819-.841-23.605-.581-35.324.542-7.191.705-13.43 4.749-17.536 10.445-3.68 5.135-5.531 11.574-4.616 17.977 1.302 6.781 3.273 13.347 5.712 20.956 8.008 24.157 22.307 52.567 47.564 70.663z" fill="#71afc4"/><g><path d="m342.074 143.451c-2.27 0-4.452-1.259-5.525-3.431-.455-.913-34.964-68.763-113.961-98.328-3.185-1.191-4.801-4.739-3.609-7.923 1.191-3.185 4.739-4.804 7.924-3.609 43.822 16.4 74.254 43.829 92.066 63.952 19.338 21.846 28.252 39.707 28.622 40.456 2.077 3.954-1.092 8.98-5.517 8.883z" fill="#518699"/></g></g><g><path d="m303.772 401.82c-3.4 0-6.157-2.757-6.157-6.157v-12.416c0-3.4 2.757-6.157 6.157-6.157s6.157 2.757 6.157 6.157v12.416c0 3.4-2.757 6.157-6.157 6.157z" fill="#be545e"/></g><g><path d="m263.358 374.107c-3.4 0-6.157-2.757-6.157-6.157v-12.416c0-3.4 2.757-6.157 6.157-6.157s6.157 2.757 6.157 6.157v12.416c0 3.401-2.757 6.157-6.157 6.157z" fill="#be545e"/></g><g><path d="m227.947 432.227c-3.4 0-6.157-2.757-6.157-6.157v-12.416c0-3.4 2.757-6.157 6.157-6.157s6.157 2.757 6.157 6.157v12.416c0 3.401-2.757 6.157-6.157 6.157z" fill="#be545e"/></g><g><path d="m156.699 329.541c-1.739 0-3.5-.443-5.116-1.374-4.909-2.831-6.595-9.105-3.764-14.015 12.971-22.497 19.713-48.163 24.138-68.011 1.234-5.534 6.724-9.015 12.249-7.783 5.531 1.234 9.016 6.718 7.783 12.248-4.744 21.274-12.03 48.889-26.391 73.797-1.9 3.296-5.351 5.138-8.899 5.138z" fill="#fff"/></g><g><path d="m195.027 225.339c-1.631 0-3.286-.39-4.826-1.213-4.998-2.669-6.886-8.886-4.216-13.886 4.254-7.964 8.812-14.586 13.936-20.245 3.802-4.203 10.291-4.526 14.493-.72 4.202 3.803 4.524 10.292.721 14.493-3.981 4.398-7.595 9.679-11.048 16.143-1.848 3.459-5.395 5.428-9.06 5.428z" fill="#fff"/></g></g><path d="m40.288 61.479 8.429 23.701c.361 1.015 1.075 1.819 1.977 2.225l21.058 9.487c2.975 1.34 2.975 6.08 0 7.421l-21.058 9.487c-.902.406-1.616 1.21-1.977 2.225l-8.429 23.701c-1.191 3.348-5.402 3.348-6.593 0l-8.429-23.701c-.361-1.015-1.075-1.819-1.977-2.225l-21.058-9.487c-2.975-1.34-2.975-6.08 0-7.421l21.058-9.487c.902-.406 1.616-1.21 1.977-2.225l8.429-23.701c1.191-3.348 5.402-3.348 6.593 0z" fill="#ffc7b6"/><path d="m487.006 426.837 6.253 17.581c.268.753.798 1.349 1.466 1.651l15.62 7.038c2.207.994 2.207 4.51 0 5.505l-15.62 7.038c-.669.301-1.199.898-1.466 1.651l-6.253 17.581c-.883 2.484-4.007 2.484-4.891 0l-6.252-17.581c-.268-.753-.798-1.349-1.467-1.651l-15.62-7.038c-2.207-.994-2.207-4.51 0-5.505l15.62-7.038c.669-.301 1.199-.898 1.467-1.651l6.252-17.581c.883-2.483 4.007-2.483 4.891 0z" fill="#ffc7b6"/><g fill="#ffa585"><ellipse cx="464.55" cy="147.598" rx="18.405" ry="18.406" transform="matrix(.16 -.987 .987 .16 244.445 582.506)"/><ellipse cx="55.705" cy="205.296" rx="7.94" ry="7.94" transform="matrix(.924 -.383 .383 .924 -74.323 36.945)"/></g></g></svg>